<?xml version="1.0" encoding="utf-8"?>
<!-- Generator: Adobe Illustrator 24.0.1, SVG Export Plug-In . SVG Version: 6.00 Build 0)  -->
<svg version="1.1" id="Layer_1" xmlns="http://www.w3.org/2000/svg" xmlns:xlink="http://www.w3.org/1999/xlink" x="0px" y="0px"
	 viewBox="0 0 773.8 773.8" style="enable-background:new 0 0 773.8 773.8;" xml:space="preserve">
<style type="text/css">
	.st0{fill:#840B09;}
	.st1{fill:#FEC300;}
	.st2{fill:#FEFEFE;}
</style>
<title>Artboard 1</title>
<path class="st0" d="M773.7,397.9v2c-2.2,5.4-5.9,4.8-10.3,3c-3.8-1.5-7.8-2.7-11.8-3.6c-17-4.3-34.2-6.7-51.8-4
	c-26.5,4-47.7,20-71.7,31.2c2,1.1,3.2,1.9,4.5,2.6c21.9,12.2,43.7,24.4,65.6,36.4c2.8,1.5,3.4,2.8,2.7,6.1c-0.9,3.7-3.1,3.3-5.5,3.2
	c-36.8-0.7-73.6-1.3-110.4-1.9c-1.3,0-2.9-0.8-4.1,0.7c8.8,12.4,17.7,18.7,35.2,22.2c26.2,5.3,47.3,18.1,64.1,38.9
	c12.9,16.1,23.9,33.5,33.9,51.5c1.4,2.5,2.5,4.2-0.8,6.5s-4.4,0.8-6.4-1.4c-9.8-11.2-20.5-21.3-32.9-29.7
	c-16.4-11-34.4-16.5-54-17.8c-14.4-1-28.8-0.1-44-2.1c1.2,2.2,2,3.7,2.8,5c12.5,20.9,25.1,41.8,37.6,62.7c1.4,2.4,3.7,4.4,0.4,7.7
	s-5.1,0.9-7.3-0.4c-30.5-18.2-60.9-36.5-91.3-54.8c-2-1.2-4-2.3-6.7-3.8c1.3,11.3,4,21.2,11.3,29.2c5.3,5.8,11,11.2,16.5,16.7
	c10.4,10.3,18.2,23,22.6,37c8.7,27.5,9,55.9,8.8,84.4c0,2-0.8,2.9-2.6,2.5s-4.8,2.5-5.6-1.7s-1.8-8.1-2.8-12.1
	c-6-24.4-15.9-46.7-35.2-63.8c-15.5-13.8-34.3-22.4-51.4-34.7c0,2.4,0,4,0,5.7c0.5,25,0.9,50,1.5,75c0.1,3.2-1,4.1-3.9,5
	c-3.2,1-4-0.3-5.2-2.5c-7.5-13.7-15.1-27.3-22.7-40.9c-11.1-20-22.2-40-33.4-60.1c-0.3,0.3-0.5,0.6-0.8,1c-0.4,0.7-0.7,1.5-1,2.3
	c-5.6,13.2-5,26.5-0.3,39.8c9.7,27.2,6.9,53.6-4,79.9c-7.7,18.5-17.6,35.8-27.6,53.2h-2c-5.1-3.6-5.1-3.6-2.9-10.3
	c0.8-2.7,1.8-5.3,2.5-8c5-18.1,7.8-36.4,5.1-55.1c-3.9-26.7-20-48-31.3-72.1c-1.4,2.4-2.4,4.1-3.3,5.8c-12,21.6-24,43.2-35.9,64.8
	c-1.4,2.5-2.5,3-5.4,2.2s-3.8-1.8-3.7-4.7c0.6-24.5,1-49,1.4-73.4c0.2-13.9,0-27.8,0-42.2l-4.6,3.7c-10.2,8.2-15.4,19.3-17.8,31.8
	c-5,26.2-18.1,47.3-38.9,64c-16.2,13-33.8,24-51.9,34.2c-2.7,1.5-4.2,1.5-6-1.2s-1.2-4,1.1-6c10.4-8.9,19.7-18.9,27.8-29.9
	c12.5-17.5,18.8-36.9,20.1-58.3c0.8-14.1,0-28.2,1.9-42.3c-2.4,0.1-3.6,1.3-5,2.2c-21,12.6-42,25.2-63.1,37.8
	c-2.4,1.4-4.3,3-7.3,0.1c-3.2-3.1-1-5.1,0.4-7.3c18.6-31,37.1-62,55.7-93c0.8-1.4,2.4-2.7,2-5c-11.3,1.5-21.6,4.5-29.8,12.6
	c-5,4.9-9.9,9.8-14.9,14.8c-11.2,11.4-25.2,19.6-40.6,24c-26.6,7.6-53.8,8-81,7.8c-1.9,0-3-0.7-2.5-2.5s-2.5-4.7,1.6-5.6
	c5.5-1.2,11-2.4,16.4-3.9c27.3-7.3,51.2-20.3,67.5-44.2c8.5-12.5,16.3-25.4,24.4-38.1c0.5-0.9,1.9-1.6,0.8-3.2c-0.8,0-1.8,0-2.8,0
	c-25.3,0.5-50.6,0.9-75.9,1.5c-3.1,0.1-4.5-0.5-5.5-3.9c-1.1-3.7,0.9-4.2,3.1-5.4c17.8-9.9,35.7-19.8,53.5-29.7
	c15.6-8.7,31.2-17.4,47.2-26.3c-1.3-0.7-2.1-1.2-3-1.5c-13.2-5.6-26.4-4.9-39.8-0.7c-13,4.1-26.2,7.5-40,6.4
	c-14-1.1-27.3-5-40.3-10.2c-18.7-7.5-36-17.5-53.3-27.5v-2c2.1-4.8,5.3-4.9,9.8-3.1c5.3,1.9,10.7,3.5,16.2,4.6
	c16,3.7,32,5.5,48.4,2.9c26.3-4,47.3-20,71.3-31c-2.2-1.2-3.6-2-5-2.8c-21.7-12.1-43.4-24.2-65.2-36.3c-2-1.1-4-1.6-2.9-5
	c1-3.1,2-4.3,5.3-4.2c26.5,0.7,53,1.2,79.4,1.6c11.8,0.2,23.5,0,35.8,0c-1.3-1.7-2.3-3-3.4-4.4c-8.3-10.4-19.5-15.8-32.2-18.2
	c-26.2-5-47.4-18.1-64.1-38.9c-12.9-16.1-23.8-33.5-33.9-51.5c-1.4-2.6-2.3-4.3,0.9-6.5s4.4-0.7,6.3,1.5c9.9,11.3,20.7,21.6,33.3,30
	c16.4,10.9,34.5,16.3,54.1,17.5c14.2,0.9,28.5,0.1,43.5,2c-1.3-2.3-2-3.7-2.8-5.1c-12.7-21.2-25.3-42.4-38.1-63.6
	c-1.5-2.6-2.3-4.2,0.2-6.8s4.1-1.5,6.4-0.1c21.4,12.9,42.9,25.8,64.4,38.6l34.4,20.7c-1.3-11.5-4-21.4-11.3-29.4
	c-5.3-5.8-10.9-11.2-16.5-16.8c-11.9-11.9-20.4-26.8-24.5-43.2c-6.6-25.2-7.2-50.9-7-76.7c0-2.3-0.1-4,3.2-4.1
	c3-0.1,4.9-0.2,5.6,3.4c1.2,6.2,2.5,12.3,4.3,18.3c7,24.7,19.1,46.2,40.1,61.9c13.8,10.3,29.1,18.4,43.5,27.9
	c0.2,0.1,0.6,0.4,0.7,0.3c0.5-0.3,0.4-0.7,0-1c0.1-1.1,0.3-2.3,0.2-3.5c-0.5-25-1-50-1.5-75c-0.1-3,0.3-4.6,3.8-5.6s4.3,0.7,5.5,2.9
	c17.4,31.5,34.9,62.9,52.4,94.3c1.1,2,2.3,4,3.7,6.3c6.7-13.8,7.3-24.8,2.1-42.5c-3.8-13.1-7.3-26.2-6.3-40
	c1-13.1,4.5-25.7,9.2-37.9c7.5-19.6,18-37.6,28.5-55.6h1c6.2,2.5,6.2,2.5,4.1,9.3c-0.3,0.8-0.5,1.6-0.7,2.4c-6,20-10,40.3-7.1,61.3
	c3.8,26.9,20,48.3,31.3,72.6c1.2-2.1,2-3.6,2.8-5c12.2-21.9,24.3-43.8,36.5-65.6c1.2-2.1,1.9-3.5,4.8-2.4c2.5,0.9,4.3,1.3,4.2,4.8
	c-0.7,24.8-1.2,49.6-1.5,74.4c-0.2,13.6,0,27.2,0,41.2c1.7-1.3,3.2-2.5,4.7-3.7c10.2-8.2,15.4-19.4,17.8-31.9
	c4.8-24.7,16.5-45.2,35.9-61.5c17-14.3,35.7-25.9,55-36.7c2.8-1.6,4.2-1.3,6,1.3c2,2.8,1,4.1-1.2,6c-11.2,9.8-21.4,20.4-29.7,32.8
	c-11.1,16.5-16.7,34.6-18,54.4c-1,14.4-0.1,28.8-2.1,44.1c2.3-1.3,3.8-2.1,5.1-2.9c21.2-12.7,42.4-25.4,63.6-38.2
	c2.6-1.6,4.2-2.3,6.8,0.3s1.4,4.1,0,6.4c-16,26.6-32,53.2-47.9,79.8c-3.6,6.1-7.2,12.2-11.3,19c11.5-1.4,21.4-4,29.4-11.4
	c5.5-5.1,10.8-10.4,16-15.8c13.2-13.4,29-21.8,47.2-26c23.8-5.6,48.1-6.2,72.4-6.1c3.8,0,4.9,1,5.2,4.8c0.4,4.6-3,3.7-5.1,4.2
	c-18.6,3.9-36.3,9.7-52.6,19.9c-26.4,16.4-37.9,44.5-54.9,68.9c2.3,0,4,0,5.6,0c25-0.5,50-1,74.9-1.6c3.1-0.1,4.1,1,5,3.9
	c1,3.2-0.3,4-2.5,5.2c-13.7,7.5-27.2,15.1-40.8,22.7l-60.3,33.5c1.3,0.7,2.1,1.1,2.9,1.5c13.2,5.6,26.4,4.9,39.8,0.7
	c12.4-3.9,24.9-7.2,38-6.5c12.8,0.7,25.2,3.8,37.2,8.3C736,376,754.8,386.9,773.7,397.9z M211.8,689.8l2.2-0.9
	c2.4-1.8,4.8-3.6,7.3-5.2c25.9-17.4,43.9-40.2,49.5-71.8c2.7-15,10.9-27,23-36.2c8.1-6.1,16.2-12.2,24.3-18.4
	c9.8-7.5,18.7-15.9,24.8-26.9c1.6-2.9,2-4.5-1.9-5.5c-7.6-2-14.6-5.6-21.5-9.1c-9-4.6-9-4.6-15.7,2.6c-25.2,26.9-42.8,60.1-51.1,96
	c-4.7,20.1-10.9,39.8-23.5,56.8c-4.7,6.3-10.6,11.4-15.2,17.8L211.8,689.8l-0.1,0.2L211.8,689.8z M84,211.9h-0.2H84l0.8,2.3
	c1.9,2.7,3.9,5.4,5.8,8.1c17.4,25.5,39.8,43.4,71.1,48.7c15,2.6,27,10.8,36.3,23c6.3,8.2,12.4,16.5,18.7,24.6
	c7.7,9.9,16,19.1,27.4,25c2.6,1.3,3.7,0.9,4.5-1.9c2.9-9.7,7.1-19,12.5-27.6c1.7-2.7,1.3-4.2-1-6.2c-8.2-7-16.3-14.1-25-20.5
	c-10.4-7.7-21.5-14.4-33.2-20.1c-14.4-6.9-29.7-11.4-45.1-15.3c-22.2-5.7-43.7-13-61.3-28.6c-3.6-3.2-6.3-7.3-10.8-9.4
	C84.5,213.4,84.2,212.6,84,211.9z M561.8,84l-2.2,0.9c-4.2,3-8.4,5.9-12.5,9.1c-15.8,12.2-30.3,25.5-37.6,44.9
	c-2.7,7.3-4.8,14.8-6.4,22.5c-3,14.8-11.4,28-23.6,37c-9.7,7.4-19.5,14.5-28.9,22.2c-8,6.5-15.3,13.8-20.1,23.2
	c-1.5,2.8-1.3,4.1,2,5.1c9.5,3,18.6,7.1,27.2,12.3c2.7,1.6,4.1,1.1,6.2-1c28-29.2,46.7-63.4,55.9-102.8c4.6-19.8,10.9-39,23.6-55.4
	c4.6-5.9,9.6-11.4,14.4-17.1L561.8,84l0.1-0.1L561.8,84z M600.5,600.2l1,0.4c0-0.4,0-0.8-0.1-1.2c-11.3-19-22.7-38-34-57
	c-0.6-1.2-1.7-2.1-3-2.4c-12.3-2-23.4-7-34.6-12.1c-0.3-0.7-1-1.2-1.4-0.5s0.4,1,1.1,1.1c0.4,2,2.1,2.9,3.3,4.2
	c10.1,10.3,20.2,20.6,30.4,30.8C575.6,575.7,588.1,587.9,600.5,600.2L600.5,600.2z M243.8,245.9c0.2,0.6,0.8,0.9,1.3,0.7
	c0,0,0,0,0.1,0c0.1-0.1,0.2-0.2,0.2-0.4c-0.1-0.6-0.7-0.9-1.3-0.8c0,0-0.1,0-0.1,0c0-2.2-1.9-3-3.1-4.3
	c-9.5-9.5-19.3-18.7-28.5-28.6c-12-12.9-24.8-25-37.2-37.5c-1-1-1.9-2.9-3.9-1.8c11.3,18.8,22.6,37.6,33.9,56.4c1,1.7,1.7,3.7,4,4.1
	C221.6,235.8,232.7,240.9,243.8,245.9z M528.4,244.3c0.9-0.4,1.7-1,2.4-1.6c9.3-9.8,19-19,28.6-28.4c12.9-12.7,25.6-25.6,38.5-38.3
	c1-1,2.6-1.9,2.5-3.8c-0.7,0.1-1.1,0-1.3,0.1c-19,11.3-37.9,22.7-56.9,34.1c-1.2,0.6-2.1,1.7-2.4,3c-2,12.2-7,23.4-12.1,34.5
	c-0.7,0.3-1.1,1-0.7,1.3C528,245.9,528.2,244.9,528.4,244.3L528.4,244.3z M245.7,529.8c-1.2-0.6-1.8,0.3-2.5,1
	c-23.5,23.7-46.9,47.4-70.2,71.1c1.4,0.5,2.8-1,4.3-1.9c17.5-10.5,34.9-21,52.4-31.5c1.7-1,3.7-1.7,4.1-4c2-12.3,7-23.4,12.1-34.6
	c0.5-0.1,0.9-0.7,0.7-1.2c0-0.1,0-0.1-0.1-0.2c0-0.1-0.3-0.2-0.4-0.1C245.6,528.7,245.2,529.1,245.7,529.8z M438.9,577.8
	c-0.1-0.1-0.2-0.2-0.3-0.3c-0.1,0-0.2,0-0.3,0l0.7,0.2c-0.6,1.7,0,3.3,0.4,4.9c5.9,22.5,11.7,45,17.7,67.4c2.9,10.8,6,21.6,8.5,30.8
	c0-21.8,0-45.1,0-68.4c0.1-1.7-0.6-3.3-1.9-4.4C453.7,599.4,445.8,589,438.9,577.8z M688.8,559.8l0.1,0.2L688.8,559.8
	c-4.1-5.6-8-11.4-12.3-16.9c-11.9-15.3-26-28-44.7-34.5c-6.3-2.1-12.7-3.9-19.2-5.3c-14.8-3-28-11.4-37-23.6c-6-8-12-16-18.1-23.9
	c-7.8-10-16.2-19.4-27.8-25.4c-2.4-1.3-3.7-1.2-4.6,1.7c-3.1,9.8-7.4,19.2-12.7,28c-1.3,2.2-1,3.3,0.7,5
	c26.9,25.5,57.3,44.6,93.6,53.8c13.7,3.5,27.3,7,40.5,12.2C663.2,537.5,676.5,548,688.8,559.8L688.8,559.8z M386,39.2
	c-1.5,2.8-3,5.5-4.3,8.4c-13.1,27.5-18.2,55.7-7.1,85.3c5.9,15.7,4.2,31.3-2.4,46.6c-4.5,10.4-8.9,20.8-13.1,31.3
	c-3.9,9.8-6.3,19.9-6,30.6c0.1,2.8,0.8,4,3.8,3.4c9.4-2.1,19-3,28.7-2.7c3.6,0.1,5.7-1.2,6.5-5.1c3-13.8,5-27.8,6.2-41.9
	c2-25.1-2.5-49.3-9.3-73.2c-4.2-14.7-7.7-29.5-8.3-44.8C380,64,382.6,51.5,386,39.2c-0.1-0.2,0-0.3,0.1-0.5s0.1-0.2,0.1-0.3
	L386,39.2z M734.7,385.9l0.4,0.1c0.1,0,0.2,0.1,0.3,0.1L734.7,385.9c-2.9-1.4-5.6-3-8.4-4.3c-17.1-7.6-34.6-13.9-53.7-13.5
	c-10.8,0.2-21,3.2-31.2,6.3c-15,4.7-29.7,4.8-44.3-1.4c-7.7-3.3-15.3-6.4-23-9.7c-13.2-5.8-26.6-10.3-41.2-10.4
	c-3.2,0-4.6,0.8-3.8,4.4c2.2,9.8,3.1,19.7,2.8,29.7c-0.1,2.6,0.8,4,3.3,4.5c12.3,2.8,24.8,4.8,37.4,6.2c25.8,2.6,51-0.9,75.8-7.9
	c12.3-3.4,24.6-6.6,37.3-8.4C702.5,379.2,718.6,381.7,734.7,385.9z M39,387.9l-0.8-0.3L39,387.9c5.5,3.3,11.3,5.6,17.2,7.9
	c14.3,5.6,28.8,10.3,44.4,9.8c9.7-0.4,19.2-2.2,28.3-5.6c19.2-6.8,37.5-5.1,55.6,3.6c6.4,3.1,13.1,5.8,19.7,8.5
	c11.4,4.7,23,8.6,35.6,8.6c3.3,0,5.7,0.2,4.4-4.7c-2.6-9.6-2.5-19.6-2.4-29.5c0-2.6-0.7-4-3.3-4.5c-16.8-3.7-33.6-6.4-50.8-7
	c-23.7-0.8-46.5,4.2-69.1,10.5c-18.5,5.2-37.1,9.3-56.5,6.8C54.2,391.3,46.6,389.3,39,387.9L39,387.9z M386.8,524.7
	c75.8,0,137.7-61.8,137.8-137.6c0.2-76-61.8-138.1-137.8-138.1c-75.8,0-137.7,61.7-137.9,137.6C248.8,462.6,310.8,524.7,386.8,524.7
	z M211.3,80.6c1,10.1,1.4,18.9,2.9,27.6c3.1,18.4,8.3,35.9,20.9,50.5c5.8,6.7,12.5,12.5,18.5,18.9c7.3,7.5,12.5,17,14.8,27.2
	c3,13.3,3.5,27,5.7,40.4c1.8,11.6,4.5,22.8,10.9,32.8c1.5,2.4,2.5,2.8,4.7,0.6c7.3-7,15.7-13,24.7-17.7c2.5-1.3,3.2-2.8,2.3-5.5
	c-8.3-27-20-52.2-37.5-74.5c-8.7-11.1-18.9-20.9-29-30.7C230.7,131.2,216.6,109.1,211.3,80.6L211.3,80.6z M561.3,686.1
	c0.3-7.1-0.8-13.8-1.8-20.5c-3-19.3-8.7-37.6-22.5-52.3c-5.5-5.8-11.2-11.4-16.8-17.1c-7.5-7.5-12.6-16.9-14.8-27.3
	c-3-13.3-3.6-27-5.6-40.5c-1.7-11.4-4.7-22.4-10.8-32.3c-1.5-2.4-2.4-3.4-5-0.9c-7.5,6.8-15.8,12.8-24.7,17.7
	c-2.4,1.3-2.8,2.8-2.1,5.2c11,37.4,29.5,70.3,58.1,97.2C536.3,635.1,554.8,656.6,561.3,686.1L561.3,686.1z M689.5,211.7
	c-7,0.5-15.6,1.2-24.1,2.5c-19.3,3.1-37.6,8.9-52.3,22.5c-5.8,5.4-11.3,11.3-17,16.9c-7.3,7.3-16.6,12.4-26.7,14.7
	c-13.5,3.1-27.3,3.6-40.9,5.8c-11.6,1.9-22.8,4.5-32.8,11c-2,1.3-2.9,2.1-0.8,4.4c7,7.6,13,16,18,25.1c1.5,2.7,3.2,2.7,5.8,1.9
	c12.8-4,25.3-8.8,37.4-14.5c18-8.4,33.9-19.8,48.4-33.2c9-8.3,17.5-17.1,26.3-25.6C646.9,227.3,667.3,216.4,689.5,211.7L689.5,211.7
	z M87.6,561.3c14.3-0.3,28.5-2.5,42.1-6.8c10.6-3.3,20.4-8.2,28.6-15.8c6.6-6.1,12.9-12.4,19.3-18.7c7.4-7.3,16.6-12.3,26.8-14.6
	c13.3-3.1,27-3.7,40.4-5.7c11.6-1.7,22.7-4.8,32.8-10.8c2.5-1.5,3.4-2.5,0.8-5c-5.3-5.2-9.5-11.3-13.5-17.6c-6.3-10-6.3-10-17.7-6.4
	c-34.1,10.6-64.9,29.9-89.4,56C138.3,536.7,117,555.1,87.6,561.3z M388.8,733.4c1.7-3.8,3.5-7.5,5.1-11.3
	c6.4-15.2,11.7-30.8,11.7-47.6c0-11.5-2.9-22.4-6.4-33.1c-5.2-15.6-4.3-30.6,2-45.6c5.1-12.1,10.2-24.2,14.9-36.5
	c3.1-7.9,4.7-16.4,4.6-24.9c0-3.4,0-5.7-5.2-4.7c-9.1,1.7-18.5,2.9-27.8,2.3c-4-0.3-5.1,1.5-5.8,4.8c-2.5,11.5-4.4,23.2-5.8,34.9
	c-1.5,14.4-1.4,28.9,0.2,43.3c1.3,12,4.8,23.8,8.1,35.5C392.4,677.9,397.5,705.2,388.8,733.4z M195.1,439.6l-0.4-1.2L92.3,465.6
	h69.8c1.3,0,2.6-0.7,3.4-1.8C174.1,454.3,184,446.1,195.1,439.6z M681.5,308.2c-22.5,0-45.7,0-68.8,0c-2.2,0-4.2,1-5.5,2.7
	c-6.4,7.2-13.7,13.6-21.8,19l-6.5,4.3l0.5,1.1L681.5,308.2z M308.1,92.3c0,22.7,0,46.1,0,69.5c0,2.4,1.5,3.6,3,4.9
	c8.5,7.7,15.9,16.6,21.8,26.4c0.4,0.6,0.7,1.5,2.3,1L308.1,92.3z M196.5,336.4c-34.6-9.9-69.3-19.6-104.4-28
	c2.2,1.7,4.6,3.1,7.1,4.4c17.3,9.6,34.6,19.2,51.9,28.8c2.1,1.2,4,1.9,6.5,1C170.2,338.4,183.3,336.3,196.5,336.4z M437.8,196.7
	c9.4-34.9,18.9-69.7,28.3-104.6c-2,1.8-3.5,3.9-4.7,6.3c-9.8,17.6-19.5,35.2-29.3,52.8c-1.2,2.1-1.9,4-1.1,6.5
	C435.2,170.3,437.5,183.4,437.8,196.7L437.8,196.7z M577.2,437.8l102,27.6c0-1.5-0.2-1.9-0.6-2.1c-19.2-10.7-38.3-21.3-57.4-32
	c-1.4-0.8-3.2-1-4.8-0.3C603.8,435.2,590.6,437.5,577.2,437.8L577.2,437.8z M335.9,577c-9.2,34.1-18.4,68.1-27.9,103.1
	c1.5-0.8,1.9-0.9,2-1.1c10.8-19.4,21.7-38.8,32.5-58.2c0.7-1.1,0.8-2.5,0.3-3.8C338.5,604.1,336.2,590.6,335.9,577z M82.6,562.2
	l1,0.1c-0.2,0.1-0.4,0.2-0.6,0.2c-0.3,0-0.6-0.1-0.8-0.2L82.6,562.2z M562.5,690.6l-0.1,0.4c-0.1-0.1-0.2-0.3-0.2-0.4
	c0.1-0.2,0.2-0.4,0.3-0.5L562.5,690.6z M682.1,465.4c-0.3-0.1-0.5-0.2-0.8-0.3c-0.1,0-0.2,0.2-0.3,0.3c0.2,0.1,0.5,0.2,0.8,0.3
	C681.8,465.7,681.9,465.5,682.1,465.4z M577.4,335.3L577.4,335.3L577.4,335.3L577.4,335.3z M335.4,196.2l-0.2,0.3h0.3L335.4,196.2z
	 M308.6,681.3l-0.2-0.3c-0.1,0.1-0.3,0.2-0.3,0.3s0.1,0.2,0.2,0.3L308.6,681.3z"/>
<path class="st1" d="M386.9,524.7c-76,0-138-62.1-137.8-138.1c0.2-75.8,62-137.5,137.9-137.6c76,0,138,62.1,137.8,138.1
	C524.6,463,462.7,524.7,386.9,524.7z"/>
<path class="st1" d="M211.4,80.6c5.3,28.5,19.4,50.6,39,69.6c10.1,9.8,20.2,19.6,29,30.7c17.6,22.3,29.3,47.5,37.5,74.5
	c0.8,2.7,0.2,4.2-2.3,5.5c-9,4.7-17.3,10.7-24.7,17.7c-2.2,2.1-3.2,1.8-4.7-0.6c-6.5-10-9.1-21.3-10.9-32.8
	c-2.1-13.5-2.7-27.1-5.7-40.4c-2.3-10.3-7.5-19.7-14.8-27.2c-6.1-6.4-12.7-12.1-18.5-18.9c-12.6-14.6-17.8-32-20.9-50.5
	C212.8,99.5,212.4,90.7,211.4,80.6z"/>
<path class="st1" d="M39,387.9c7.7,1.5,15.2,3.5,23,4.5c19.4,2.5,38-1.7,56.5-6.8c22.6-6.3,45.4-11.3,69.1-10.5
	c17.2,0.6,34,3.3,50.8,7c2.6,0.6,3.3,2,3.3,4.5c0,9.9-0.1,19.9,2.4,29.5c1.3,4.9-1.1,4.7-4.4,4.7c-12.6,0-24.2-3.9-35.6-8.6
	c-6.6-2.7-13.2-5.4-19.7-8.5c-18.1-8.7-36.4-10.3-55.6-3.6c-9.1,3.3-18.6,5.1-28.3,5.5c-15.6,0.4-30.1-4.2-44.4-9.8
	c-5.9-2.3-11.7-4.6-17.1-8L39,387.9z"/>
<path class="st1" d="M559.6,84.8c-4.8,5.7-9.8,11.2-14.4,17.1c-12.7,16.4-19,35.6-23.6,55.4c-9.2,39.5-27.8,73.6-55.8,102.8
	c-2,2.1-3.4,2.7-6.2,1c-8.5-5.2-17.6-9.3-27.2-12.3c-3.3-1-3.4-2.3-2-5.1c4.8-9.4,12.1-16.7,20.1-23.2c9.4-7.6,19.2-14.9,28.9-22.2
	c12.1-9,20.5-22.2,23.6-37c1.6-7.6,3.7-15.2,6.4-22.5c7.3-19.4,21.8-32.7,37.6-44.9C551.3,90.8,555.5,87.8,559.6,84.8L559.6,84.8z"
	/>
<path class="st1" d="M84.8,214.1c4.5,2,7.3,6.2,10.8,9.3c17.6,15.6,39,22.9,61.3,28.6c15.4,3.9,30.7,8.4,45.1,15.3
	c11.6,5.7,22.7,12.4,33.2,20.1c8.8,6.4,16.8,13.4,25,20.5c2.3,2,2.7,3.5,1,6.2c-5.3,8.6-9.5,17.9-12.5,27.6
	c-0.8,2.8-1.9,3.2-4.5,1.9c-11.4-5.9-19.7-15.1-27.4-25c-6.3-8.1-12.5-16.4-18.7-24.6c-9.2-12.1-21.2-20.4-36.3-23
	c-31.3-5.3-53.7-23.2-71.1-48.7C88.7,219.4,86.7,216.8,84.8,214.1L84.8,214.1z"/>
<path class="st1" d="M734.7,385.9c-16-4.2-32.1-6.8-48.8-4.5c-12.7,1.8-25,5-37.3,8.4c-24.8,7-50,10.5-75.8,7.9
	c-12.6-1.4-25-3.4-37.4-6.2c-2.6-0.5-3.4-1.9-3.3-4.5c0.3-10-0.6-20-2.8-29.7c-0.8-3.6,0.6-4.4,3.8-4.4c14.6,0.1,28,4.6,41.2,10.4
	c7.6,3.3,15.3,6.4,23,9.7c14.6,6.2,29.3,6.2,44.3,1.4c10.1-3.2,20.4-6.1,31.2-6.3c19.1-0.4,36.6,5.9,53.7,13.5
	C729.2,382.9,731.9,384.5,734.7,385.9L734.7,385.9z"/>
<path class="st1" d="M561.3,686.1c-6.4-29.4-24.9-51-46.1-70.8c-28.6-26.9-47.2-59.7-58.1-97.2c-0.7-2.5-0.3-3.9,2.1-5.2
	c8.9-4.9,17.1-10.9,24.7-17.7c2.7-2.4,3.6-1.5,5,0.9c6.1,10,9,20.9,10.8,32.4c2,13.5,2.7,27.1,5.6,40.5c2.2,10.3,7.4,19.8,14.8,27.2
	c5.6,5.7,11.4,11.3,16.8,17.1c13.8,14.7,19.5,33,22.5,52.3C560.5,672.3,561.6,679,561.3,686.1z"/>
<path class="st1" d="M385.9,39.1c-3.3,12.4-5.9,24.9-5.3,37.8c0.7,15.3,4.1,30.1,8.3,44.8c6.9,23.9,11.3,48.1,9.3,73.2
	c-1.2,14.1-3.3,28.1-6.2,41.9c-0.8,3.9-2.8,5.3-6.5,5.1c-9.6-0.3-19.3,0.6-28.7,2.7c-3,0.6-3.8-0.6-3.8-3.4
	c-0.3-10.7,2.2-20.8,6-30.6c4.2-10.5,8.6-20.9,13.1-31.3c6.6-15.3,8.3-30.9,2.4-46.6c-11-29.6-6-57.8,7.1-85.3
	C383,44.7,384.5,41.9,385.9,39.1L385.9,39.1z"/>
<path class="st1" d="M688.8,559.8c-12.3-11.8-25.6-22.3-41.6-28.7c-13.2-5.3-26.8-8.7-40.5-12.2c-36.3-9.2-66.7-28.3-93.6-53.8
	c-1.8-1.7-2-2.8-0.7-5c5.3-8.8,9.5-18.2,12.7-28c0.9-2.9,2.1-3,4.6-1.7c11.6,6,20,15.4,27.8,25.4c6.1,7.9,12.1,15.9,18.1,23.9
	c9,12.2,22.2,20.6,37,23.6c6.5,1.4,12.9,3.2,19.2,5.3c18.7,6.4,32.8,19.1,44.7,34.5C680.7,548.4,684.7,554.2,688.8,559.8
	L688.8,559.8z"/>
<path class="st1" d="M689.6,211.7c-22.2,4.7-42.6,15.6-58.8,31.5c-8.8,8.5-17.3,17.3-26.3,25.6C589.9,282.2,574,293.6,556,302
	c-12.1,5.7-24.6,10.5-37.4,14.5c-2.5,0.8-4.2,0.8-5.8-1.9c-5-9-11-17.5-18-25.1c-2.1-2.3-1.2-3.1,0.8-4.4c10-6.5,21.3-9.1,32.8-11
	c13.6-2.2,27.4-2.7,40.9-5.8c10.1-2.3,19.4-7.4,26.7-14.6c5.7-5.6,11.2-11.4,17-16.9c14.7-13.7,32.9-19.5,52.3-22.5
	C673.9,212.9,682.5,212.2,689.6,211.7z"/>
<path class="st1" d="M87.6,561.3c29.4-6.2,50.7-24.6,70.3-45.4c24.4-26.1,55.2-45.4,89.4-56c11.4-3.6,11.4-3.6,17.7,6.4
	c4,6.3,8.2,12.4,13.5,17.6c2.5,2.5,1.7,3.5-0.8,5c-10.1,6.1-21.2,9.1-32.8,10.8c-13.5,2-27.1,2.6-40.4,5.7
	c-10.1,2.3-19.4,7.3-26.8,14.6c-6.4,6.3-12.8,12.6-19.3,18.7c-8.2,7.6-18,12.5-28.6,15.8C116.1,558.7,101.9,561,87.6,561.3z"/>
<path class="st1" d="M214.1,688.9c4.5-6.4,10.5-11.5,15.2-17.8c12.6-17,18.8-36.6,23.5-56.8c8.3-35.9,25.9-69.1,51.1-96
	c6.7-7.3,6.7-7.3,15.7-2.6c7,3.5,14,7.1,21.5,9.1c4,1,3.5,2.6,1.9,5.5c-6.2,10.9-15,19.3-24.8,26.9c-8.1,6.2-16.2,12.3-24.3,18.4
	c-12.1,9.2-20.4,21.2-23,36.2c-5.6,31.6-23.6,54.3-49.5,71.8C218.9,685.3,216.5,687.1,214.1,688.9L214.1,688.9z"/>
<path class="st1" d="M388.8,733.4c8.7-28.2,3.6-55.5-4.3-82.9c-3.4-11.6-6.9-23.5-8.1-35.5c-1.6-14.4-1.7-28.9-0.2-43.3
	c1.3-11.7,3.3-23.4,5.8-34.9c0.7-3.3,1.9-5.1,5.8-4.8c9.3,0.6,18.7-0.6,27.8-2.3c5.2-1,5.2,1.3,5.2,4.7c0.1,8.5-1.5,16.9-4.6,24.9
	c-4.7,12.3-9.9,24.3-14.9,36.5c-6.3,15-7.2,30-2,45.6c3.5,10.7,6.5,21.7,6.4,33.1c0,16.8-5.3,32.3-11.7,47.6
	C392.3,725.9,390.5,729.6,388.8,733.4z"/>
<path class="st1" d="M438.9,577.8c6.8,11.2,14.7,21.6,24.8,30.2c1.3,1.1,2,2.7,1.9,4.4c0,23.3,0,46.6,0,68.4
	c-2.5-9.2-5.6-20-8.5-30.8c-6-22.5-11.8-45-17.7-67.4c-0.4-1.6-1-3.2-0.4-4.9L438.9,577.8z"/>
<path class="st1" d="M245.9,529.9c-5.1,11.2-10.2,22.3-12.1,34.6c-0.4,2.3-2.4,3.1-4.1,4.1c-17.5,10.5-34.9,21-52.4,31.5
	c-1.5,0.9-2.9,2.3-4.3,1.9c23.3-23.6,46.7-47.3,70.2-71.1c0.7-0.7,1.3-1.6,2.5-1L245.9,529.9z"/>
<path class="st1" d="M195.1,439.6c-11.1,6.5-21,14.7-29.5,24.3c-0.8,1.1-2.1,1.7-3.4,1.8H92.3l102.3-27.2L195.1,439.6z"/>
<path class="st1" d="M681.6,308.2l-101.9,27.1c-0.2,0-1,0.1-1.2,0.1h-1.2l8.2-5.6c8-5.4,15.3-11.8,21.8-19c1.3-1.7,3.4-2.7,5.5-2.7
	C635.9,308.2,659,308.2,681.6,308.2z"/>
<path class="st1" d="M308.1,92.2l27.1,101.9c-1.6,0.5-1.9-0.4-2.3-1c-6-9.8-13.3-18.7-21.9-26.4c-1.5-1.4-3-2.6-3-4.9
	C308.2,138.3,308.1,114.9,308.1,92.2z"/>
<path class="st1" d="M527.8,243.9c5.1-11.1,10.1-22.3,12.1-34.5c0.3-1.3,1.2-2.4,2.4-3c18.9-11.4,37.9-22.7,56.9-34.1
	c0.2-0.1,0.6-0.1,1.3-0.1c0,2-1.5,2.8-2.5,3.8c-12.9,12.7-25.6,25.6-38.5,38.3c-9.6,9.4-19.4,18.6-28.6,28.4
	c-0.7,0.6-1.6,1.1-2.4,1.6C528.2,244.1,528,244,527.8,243.9z"/>
<path class="st1" d="M196.5,336.4c-13.2-0.1-26.3,2-38.8,6.3c-2.5,0.9-4.4,0.1-6.5-1c-17.3-9.6-34.6-19.3-51.9-28.8
	c-2.5-1.3-4.8-2.7-7.1-4.4C127.3,316.8,161.9,326.5,196.5,336.4z"/>
<path class="st1" d="M437.8,196.6c-0.2-13.3-2.5-26.4-6.8-38.9c-0.9-2.5-0.1-4.4,1.1-6.5c9.8-17.6,19.6-35.2,29.3-52.8
	c1.1-2.4,2.7-4.5,4.7-6.3C456.7,126.9,447.2,161.8,437.8,196.6z"/>
<path class="st1" d="M243.9,245.9c-11.2-5.1-22.3-10.2-34.6-12.1c-2.3-0.4-3-2.4-4-4.1c-11.3-18.8-22.6-37.6-33.9-56.4
	c2-1.1,2.9,0.8,3.9,1.8c12.3,12.5,25.2,24.6,37.2,37.5c9.2,9.8,19,19,28.5,28.6c1.2,1.2,3.1,2.1,3.1,4.3L243.9,245.9z"/>
<path class="st1" d="M577.2,437.8c13.3-0.3,26.6-2.6,39.2-6.9c1.5-0.6,3.3-0.5,4.8,0.3c19.1,10.7,41.4,23,60.6,33.7
	c0.4,0.3,0.6,0.3,0.7,1.3L577.2,437.8z"/>
<path class="st1" d="M336,577c0.3,13.6,2.6,27.1,7,40c0.5,1.2,0.3,2.6-0.3,3.8c-10.8,19.4-21.7,38.8-32.5,58.2
	c-0.1,0.2-0.5,0.3-2,1.1C317.5,645.1,326.8,611.1,336,577z"/>
<path class="st1" d="M529.9,527.8c11.2,5.1,22.3,10.2,34.6,12.1c1.3,0.3,2.4,1.2,3,2.4c11.3,19,22.7,38,34,57l-0.9,0.8
	c-12.4-12.3-24.9-24.4-37.2-36.8c-10.2-10.2-20.3-20.5-30.4-30.8c-1.3-1.3-3-2.2-3.3-4.2C529.7,528.2,529.8,528,529.9,527.8z"/>
<path class="st1" d="M82.6,562.2l-0.5,0.1c0.3,0.1,0.5,0.2,0.8,0.2c0.2,0,0.4-0.1,0.6-0.2L82.6,562.2z"/>
<path class="st1" d="M562.5,690.6v-0.5c-0.1,0.2-0.2,0.3-0.3,0.5c0,0.1,0.1,0.3,0.2,0.4L562.5,690.6z"/>
<path class="st1" d="M386,39.1l0.2-0.8c0,0.1,0,0.2-0.1,0.3S386,38.9,386,39.1L386,39.1z"/>
<path class="st1" d="M559.7,84.9l2.2-0.9h0.1L559.7,84.9L559.7,84.9z"/>
<path class="st1" d="M39.1,387.8l-0.9-0.2L39.1,387.8L39.1,387.8z"/>
<path class="st1" d="M244.1,245.5c0.6-0.2,1.1,0.1,1.3,0.7c0,0,0,0.1,0,0.1c0,0.2,0,0.3-0.2,0.4c-0.6,0.2-1.2-0.1-1.4-0.7
	c0,0,0,0,0-0.1L244.1,245.5z"/>
<path class="st1" d="M734.6,386l0.8,0.2c-0.1,0-0.2,0-0.3-0.1L734.6,386L734.6,386z"/>
<path class="st1" d="M528.4,244.2c-0.2,0.6-0.3,1.7-1.3,1c-0.4-0.3,0.1-1.1,0.7-1.3C528,244,528.2,244.2,528.4,244.2z"/>
<path class="st1" d="M84,211.9l0.8,2.3l0-0.1L84,211.9L84,211.9z"/>
<path class="st1" d="M529.5,528.4c-0.6-0.1-1.5-0.4-1.1-1.1c0.5-0.7,1.1-0.2,1.4,0.5C529.7,528,529.6,528.2,529.5,528.4z"/>
<path class="st1" d="M245.8,529.8c-0.6-0.7-0.1-1.1,0.4-1.5c0.1-0.1,0.4,0,0.4,0.1c0.3,0.5,0.1,1.1-0.4,1.4c-0.1,0-0.2,0.1-0.3,0.1
	L245.8,529.8z"/>
<path class="st1" d="M211.9,689.8l2.3-0.9h-0.1L211.9,689.8L211.9,689.8z"/>
<path class="st2" d="M300.3,156.6c0.4,0.3,0.5,0.7,0,1c-0.1,0.1-0.5-0.2-0.7-0.3L300.3,156.6z"/>
<polygon class="st1" points="84,211.9 83.8,211.8 84,211.8 "/>
<polygon class="st1" points="335.4,196.2 335.5,196.5 335.3,196.5 "/>
<polygon class="st1" points="688.8,559.8 688.9,560 688.8,559.8 "/>
<path class="st1" d="M439,577.7l-0.7-0.2c0.1,0,0.2,0,0.3,0c0.1,0.1,0.2,0.2,0.3,0.3L439,577.7z"/>
<path class="st1" d="M601.4,599.3c0,0.4,0,0.8,0.1,1.2l-1-0.4L601.4,599.3z"/>
<polygon class="st1" points="561.9,84 562,83.8 561.9,84 "/>
<path class="st1" d="M308.6,681.3l-0.3,0.3c-0.1-0.1-0.2-0.2-0.2-0.3s0.2-0.2,0.3-0.3L308.6,681.3z"/>
<polygon class="st1" points="211.9,689.8 211.8,689.9 211.8,689.8 "/>
</svg>
